<?xml version="1.0" encoding="UTF-8"?>
<svg id="Layer_2" data-name="Layer 2" xmlns="http://www.w3.org/2000/svg" viewBox="0 0 888.89 888.85">
  <g id="Layer_1-2" data-name="Layer 1">
    <path d="M800,222.18h-15.03c9.63-20.22,15.03-42.82,15.03-66.67,0-162.22-232.68-242.1-355.56-14.42C321.51-86.7,88.89-6.5,88.89,155.51c0,23.84,5.4,46.45,15.03,66.67h-15.03C39.88,222.18,0,262.05,0,311.07v88.89c0,49.01,39.88,88.89,88.89,88.89v266.67c0,73.52,59.81,133.33,133.33,133.33h444.44c73.52,0,133.33-59.81,133.33-133.33v-266.67c49.01,0,88.89-39.88,88.89-88.89v-88.89c0-49.01-39.88-88.89-88.89-88.89ZM711.11,155.51c0,36.76-29.91,66.67-66.67,66.67h-139.69c71.46-183.66,206.35-148.62,206.35-66.67ZM177.78,155.51c0-81.93,134.85-117.1,206.35,66.67h-139.69c-36.76,0-66.67-29.91-66.67-66.67ZM88.86,311.07c-.1-.03,4.1,0,311.14,0v88.89H88.86v-88.89ZM177.78,755.51v-266.67h222.22v311.11h-177.78c-24.51,0-44.44-19.94-44.44-44.45ZM711.11,755.51c0,24.51-19.94,44.45-44.44,44.45h-177.78v-311.11h222.22v266.67ZM800,399.96h-311.11v-88.89h311.11v88.89Z"/>
  </g>
</svg>